HIERARCHY
ROOT hip
{
  OFFSET 0 0 0
  CHANNELS 6 Xposition Yposition Zposition Zrotation Yrotation Xrotation
  JOINT abdomen
  {
    OFFSET 0 20.6881 -0.73152
    CHANNELS 3 Zrotation Xrotation Yrotation
    JOINT chest
    {
      OFFSET 0 11.7043 -0.48768
      CHANNELS 3 Zrotation Xrotation Yrotation
      JOINT neck
      {
        OFFSET 0 22.1894 -2.19456
        CHANNELS 3 Zrotation Xrotation Yrotation
        JOINT head
        {
          OFFSET -0.24384 7.07133 1.2192
          CHANNELS 3 Zrotation Xrotation Yrotation
          JOINT leftEye
          {
            OFFSET 4.14528 8.04674 8.04672
            CHANNELS 3 Zrotation Xrotation Yrotation
            End Site
            {
              OFFSET 1 0 0
            }
          }
          JOINT rightEye
          {
            OFFSET -3.6576 8.04674 8.04672
            CHANNELS 3 Zrotation Xrotation Yrotation
            End Site
            {
              OFFSET 1 0 0
            }
          }
        }
      }
      JOINT rCollar
      {
        OFFSET -2.68224 19.2634 -4.8768
        CHANNELS 3 Zrotation Xrotation Yrotation
        JOINT rShldr
        {
          OFFSET -8.77824 -1.95073 1.46304
          CHANNELS 3 Zrotation Xrotation Yrotation
          JOINT rForeArm
          {
            OFFSET -28.1742 -1.7115 0.48768
            CHANNELS 3 Zrotation Xrotation Yrotation
            JOINT rHand
            {
              OFFSET -22.5879 0.773209 7.07136
              CHANNELS 3 Zrotation Xrotation Yrotation
              JOINT rThumb1
              {
                OFFSET -1.2192 -0.487915 3.41376
                CHANNELS 3 Zrotation Xrotation Yrotation
                JOINT rThumb2
                {
                  OFFSET -3.37035 -0.52449 3.41376
                  CHANNELS 3 Zrotation Xrotation Yrotation
                  End Site
                  {
                    OFFSET -1.78271 -1.18214 1.43049
                  }
                }
              }
              JOINT rIndex1
              {
                OFFSET -7.75947 0.938293 5.60832
                CHANNELS 3 Zrotation Xrotation Yrotation
                JOINT rIndex2
                {
                  OFFSET -2.54057 -0.884171 1.56538
                  CHANNELS 3 Zrotation Xrotation Yrotation
                  End Site
                  {
                    OFFSET -1.62519 -0.234802 1.16502
                  }
                }
              }
              JOINT rMid1
              {
                OFFSET -8.24714 1.18213 3.41376
                CHANNELS 3 Zrotation Xrotation Yrotation
                JOINT rMid2
                {
                  OFFSET -3.10165 -0.590103 1.0647
                  CHANNELS 3 Zrotation Xrotation Yrotation
                  End Site
                  {
                    OFFSET -2.48547 -0.328903 0.83742
                  }
                }
              }
              JOINT rRing1
              {
                OFFSET -8.82822 0.546677 1.51678
                CHANNELS 3 Zrotation Xrotation Yrotation
                JOINT rRing2
                {
                  OFFSET -2.60934 -0.819778 -0.0198488
                  CHANNELS 3 Zrotation Xrotation Yrotation
                  End Site
                  {
                    OFFSET -2.33842 -0.294052 0.168128
                  }
                }
              }
              JOINT rPinky1
              {
                OFFSET -8.27202 -0.0477905 -0.4584
                CHANNELS 3 Zrotation Xrotation Yrotation
                JOINT rPinky2
                {
                  OFFSET -1.82734 -0.647385 -0.700984
                  CHANNELS 3 Zrotation Xrotation Yrotation
                  End Site
                  {
                    OFFSET -1.69225 -0.51767 -0.607171
                  }
                }
              }
            }
          }
        }
      }
      JOINT lCollar
      {
        OFFSET 2.68224 19.2634 -4.8768
        CHANNELS 3 Zrotation Xrotation Yrotation
        JOINT lShldr
        {
          OFFSET 8.77824 -1.95073 1.46304
          CHANNELS 3 Zrotation Xrotation Yrotation
          JOINT lForeArm
          {
            OFFSET 28.1742 -1.7115 0.48768
            CHANNELS 3 Zrotation Xrotation Yrotation
            JOINT lHand
            {
              OFFSET 22.5879 0.773209 7.07136
              CHANNELS 3 Zrotation Xrotation Yrotation
              JOINT lThumb1
              {
                OFFSET 1.2192 -0.487915 3.41376
                CHANNELS 3 Zrotation Xrotation Yrotation
                JOINT lThumb2
                {
                  OFFSET 3.37035 -0.52449 3.41376
                  CHANNELS 3 Zrotation Xrotation Yrotation
                  End Site
                  {
                    OFFSET 1.78271 -1.18214 1.43049
                  }
                }
              }
              JOINT lIndex1
              {
                OFFSET 7.75947 0.938293 5.60832
                CHANNELS 3 Zrotation Xrotation Yrotation
                JOINT lIndex2
                {
                  OFFSET 2.54057 -0.884171 1.56538
                  CHANNELS 3 Zrotation Xrotation Yrotation
                  End Site
                  {
                    OFFSET 1.62519 -0.234802 1.16502
                  }
                }
              }
              JOINT lMid1
              {
                OFFSET 8.24714 1.18213 3.41376
                CHANNELS 3 Zrotation Xrotation Yrotation
                JOINT lMid2
                {
                  OFFSET 3.10165 -0.590103 1.0647
                  CHANNELS 3 Zrotation Xrotation Yrotation
                  End Site
                  {
                    OFFSET 2.48547 -0.328903 0.83742
                  }
                }
              }
              JOINT lRing1
              {
                OFFSET 8.82822 0.546677 1.51678
                CHANNELS 3 Zrotation Xrotation Yrotation
                JOINT lRing2
                {
                  OFFSET 2.60934 -0.819778 -0.0198488
                  CHANNELS 3 Zrotation Xrotation Yrotation
                  End Site
                  {
                    OFFSET 2.33842 -0.294052 0.168128
                  }
                }
              }
              JOINT lPinky1
              {
                OFFSET 8.27202 -0.0477905 -0.4584
                CHANNELS 3 Zrotation Xrotation Yrotation
                JOINT lPinky2
                {
                  OFFSET 1.82734 -0.647385 -0.700984
                  CHANNELS 3 Zrotation Xrotation Yrotation
                  End Site
                  {
                    OFFSET 1.69225 -0.51767 -0.607171
                  }
                }
              }
            }
          }
        }
      }
    }
  }
  JOINT rButtock
  {
    OFFSET -8.77824 4.35084 1.2192
    CHANNELS 3 Zrotation Xrotation Yrotation
    JOINT rThigh
    {
      OFFSET 0 -1.70687 -2.19456
      CHANNELS 3 Zrotation Xrotation Yrotation
      JOINT rShin
      {
        OFFSET 0 -36.8199 0.73152
        CHANNELS 3 Zrotation Xrotation Yrotation
        JOINT rFoot
        {
          OFFSET 0.73152 -45.1104 -5.12064
          CHANNELS 3 Zrotation Xrotation Yrotation
          End Site
          {
            OFFSET -1.1221 -3.69964 12.103
          }
        }
      }
    }
  }
  JOINT lButtock
  {
    OFFSET 8.77824 4.35084 1.2192
    CHANNELS 3 Zrotation Xrotation Yrotation
    JOINT lThigh
    {
      OFFSET 0 -1.70687 -2.19456
      CHANNELS 3 Zrotation Xrotation Yrotation
      JOINT lShin
      {
        OFFSET 0 -36.8199 0.73152
        CHANNELS 3 Zrotation Xrotation Yrotation
        JOINT lFoot
        {
          OFFSET -0.73152 -45.1104 -5.12064
          CHANNELS 3 Zrotation Xrotation Yrotation
          End Site
          {
            OFFSET 1.1221 -3.69964 12.103
          }
        }
      }
    }
  }
}
MOTION
Frames:	6
Frame Time:	0.03333
0.0 0.0 0.0 0.0 0.0 0.0 0.0 0.0 0.0 0.0 0.0 0.0 0.0 0.0 0.0 0.0 0.0 0.0 0.0 0.0 0.0 0.0 0.0 0.0 0.0 0.0 0.0 0.0 0.0 0.0 0.0 0.0 0.0 0.0 0.0 0.0 0.0 0.0 0.0 0.0 0.0 0.0 0.0 0.0 0.0 0.0 0.0 0.0 0.0 0.0 0.0 0.0 0.0 0.0 0.0 0.0 0.0 0.0 0.0 0.0 0.0 0.0 0.0 0.0 0.0 0.0 0.0 0.0 0.0 0.0 0.0 0.0 0.0 0.0 0.0 0.0 0.0 0.0 0.0 0.0 0.0 0.0 0.0 0.0 0.0 0.0 0.0 0.0 0.0 0.0 0.0 0.0 0.0 0.0 0.0 0.0 0.0 0.0 0.0 0.0 0.0 0.0 0.0 0.0 0.0 0.0 0.0 0.0 0.0 0.0 0.0 0.0 0.0 0.0 0.0 0.0 0.0 0.0 0.0 0.0 0.0 0.0 0.0 0.0 0.0 0.0 0.0 0.0 0.0 0.0 0.0 0.0
-0.0646 62.6015 0.015799999999999998 -0.032913 -17.121167 -0.392327 -0.109517 -1.711431 176.337995 5.666508 -11.511013 -148.934546 -10.713483 -10.288441 -80.315779 -25.107756 48.83933 -140.96042 152.40807 -7.870753 31.301718 -25.513152 -0.586895 2.591902 -85.071345 -28.287768 167.185812 -165.200798 11.651543 173.005283 -152.378918 -85.474767 1.393827 -4.41368 37.290341 -62.657172 -177.919889 0.698187 56.85514 30.948974 8.635447 -165.511351 -159.989014 37.712675 -152.138336 -93.755599 18.259778 -119.758879 -44.824349 31.518246 -79.377283 -6.751871 -25.894798 -110.59948 154.646101 29.845853 -70.646662 19.168934 29.293841 -5.588624 -3.28812 5.289119 -79.984416 -160.616682 35.913753 -152.72792 84.006723 -11.992632 -158.09919 -11.789083 -30.01232 -11.627598 81.730487 -88.532969 -73.619523 -3.601571 4.539356 47.105553 -171.543188 -4.621132 -66.424317 -7.577896 -18.490829 -3.52298 145.685925 12.903619 -34.508755 169.863092 -5.437116 -47.778919 -38.916221 19.226417 -43.328896 73.606486 2.446536 27.626613 84.605353 60.71477 99.227406 46.13771 -88.140799 125.947706 -43.98361 -0.702452 84.242545 84.700312 -58.548297 87.170843 47.817569 23.721097 101.865713 -11.148786 51.323205 -165.832196 -7.61519 2.630374 -95.886478 79.324844 28.788551 -85.344958 -0.374437 -45.669318 -0.0 1.878905 46.889555 -1.346388 -6.520485 3.720428 -129.215176 -72.376033 1.306195 94.804232
-0.2654 68.06179999999999 -0.2467 -123.490085 85.889119 -120.866217 0.948202 4.675372 175.408993 -0.187139 -1.244645 -174.382936 3.457986 10.208948 86.764743 -28.351136 1.206995 -105.960798 40.135893 3.776194 10.312663 61.828904 0.62259 1.039659 4.394796 -18.048738 -3.392124 62.493963 21.217897 -12.511651 -90.147295 37.65801 81.901169 45.337709 -62.181411 34.241001 -172.55913 -4.083857 99.672878 -131.928563 -2.148042 60.29159 -156.073809 -26.817603 127.381864 131.552452 -63.884889 52.567356 169.633617 -63.039723 152.123865 -171.639995 -30.254601 153.215272 -5.760494 -2.388716 2.790496 -152.140542 -26.543204 179.395751 -21.59538 -44.208805 -13.563891 -167.853563 49.452112 -156.337276 -3.789209 0.124904 2.582851 -68.579402 7.353496 -10.431342 -2.456039 15.358325 -30.737106 6.321965 15.62729 0.913063 177.956865 -3.169223 -92.813235 -55.906022 -57.887667 -76.173261 -50.137356 -68.669532 -10.623086 14.511844 25.866492 -9.49694 157.868837 -6.272042 -139.648851 -7.002028 23.20851 -13.935543 -1.937258 1.380966 -3.880295 -10.965019 -62.768949 -4.866603 106.527825 -82.865529 107.488795 44.189394 -47.027993 1.685549 46.274684 18.310562 44.623804 -75.451241 9.758832 29.527766 53.428927 8.173852 94.665797 -29.838094 16.922766 177.418294 64.043986 35.103475 57.790343 -64.982705 14.487296 -67.340623 -21.840476 40.47011 147.082587 -153.924761 1.557673 89.273056
-0.7757000000000001 75.2472 0.04970000000000001 -121.256849 84.833949 -119.533758 -0.752388 4.683169 -145.834818 -2.882739 2.224598 150.198526 3.924383 19.426801 123.543351 -26.774824 21.175176 -139.102405 -5.99265 1.495975 -28.010092 30.902699 5.23417 18.779464 -154.493272 -39.482436 172.386623 -42.719194 -5.222249 -18.808987 0.387615 -21.962171 -69.445503 164.096075 -28.472517 142.087647 0.348477 -7.96412 -1.310065 -83.728002 41.259175 73.833819 -40.037144 50.213799 16.911588 -176.789116 6.253773 102.661656 -146.056847 13.221245 128.934945 -160.323809 -40.565881 126.669902 -143.611133 21.991831 163.462448 16.469164 0.24837 -1.066133 5.622324 -37.981009 1.334859 -105.943256 -56.627312 -70.005466 -13.240327 -61.807562 4.059408 -74.628148 23.38053 52.586753 10.220271 29.942415 -35.633897 1.426223 19.36185 -0.807263 6.489927 -7.798844 11.605914 131.965275 -48.745377 -113.500574 18.779982 11.64586 -9.97593 9.925686 46.767502 6.640337 7.902589 -30.122358 -0.019598 141.613057 -8.880316 -152.695746 86.228663 73.960358 -89.822129 -165.131429 -43.827216 -146.157074 15.274499 -46.490154 2.931002 12.154123 7.771089 18.35067 -112.212593 83.107275 -67.932487 148.376159 56.545685 -143.57065 -24.576421 -40.347737 -149.717993 -89.068018 50.740576 14.289405 -112.943639 62.407132 -35.906404 142.275123 53.094913 31.290405 -10.054629 42.726226 -98.26623 145.635401 -11.91911 -136.17476
-0.7355 76.4801 -0.1999 -115.099962 85.574235 -112.597856 -4.985593 6.194234 0.0 9.367327 -3.189057 -0.505519 -13.288461 6.574389 -12.411618 16.178654 -16.531148 -2.006919 -15.60115 5.002181 -35.36956 23.388714 -1.292604 -6.238937 -145.457086 39.43702 146.791435 58.976274 -41.632553 94.450319 -44.447442 -0.653133 12.245828 14.75451 -43.033832 8.027059 -63.529325 36.884146 40.591096 -172.609833 -66.312418 98.4245 -104.79653 40.950665 85.351098 -177.805139 -39.639058 99.137925 -29.04913 50.213712 38.894877 -15.053448 56.622051 -8.766279 4.062183 -27.502532 -3.247419 -2.422417 -30.943851 -0.253771 7.903465 30.630929 -11.979019 -154.273522 53.061926 -159.552996 4.09639 32.599069 -9.419417 -121.982278 -44.492569 -52.350883 -112.603241 -59.47511 -54.425912 -168.203391 -5.498873 -147.301565 169.741584 -2.920512 -94.360816 104.079292 20.09995 -44.420926 20.165557 25.074194 -9.906117 175.453132 -15.22211 -111.742543 43.847354 54.676907 -18.387384 167.208678 6.052722 -106.163324 109.902332 -55.102821 114.973628 18.844671 -51.828168 74.414858 71.438831 -62.393812 72.904992 6.825916 12.972506 2.413338 56.232603 31.132483 55.628173 -86.787162 20.097318 -180.0 -31.328773 -34.079401 98.762803 81.562099 2.297087 -3.202743 13.335278 3.887982 6.816969 -4.067212 -18.53821 -0.0 6.041323 48.102915 127.840298 168.936764 69.704308 102.134402
-0.5105000000000001 77.0238 -0.7254 -79.782801 87.069799 -75.64821 -3.457706 0.3784 -88.841099 0.41946 6.323111 87.003337 -16.514645 27.904752 -135.572262 19.110641 36.234537 108.441542 -7.301247 0.793698 -12.39174 28.639899 -5.472436 -21.20881 -71.026345 -86.588468 -88.604922 108.036731 41.21806 -101.457189 -10.660034 19.195027 41.920804 0.518361 0.676264 0.866111 -168.954408 -17.211042 88.360943 -20.207914 -27.462256 19.280753 -92.18888 31.030685 72.186369 6.407872 31.60053 21.43334 172.992994 -66.889248 128.736181 10.678294 3.93741 4.711508 -9.310889 -44.487052 -9.006287 -147.624856 -49.676021 -162.552066 90.214932 72.623306 -77.145716 -101.4193 -73.399828 -103.029247 56.887158 -84.552529 86.247636 -6.365544 -1.393029 52.457407 -179.389099 78.155013 145.837104 6.903574 45.759924 -1.387064 -5.295313 -13.839271 0.984328 116.543803 -23.806076 -108.782317 -26.331765 -60.810101 9.139708 -56.393639 -23.598233 -10.411752 30.413362 58.165618 -11.490913 75.242856 36.829008 -49.171056 140.872868 -39.2753 158.494328 -90.641247 80.506519 65.187351 140.267122 17.20249 153.934919 2.058962 -4.548176 -12.531852 -5.833353 4.121971 7.948811 -6.897145 -31.542951 -52.176662 -44.482199 29.998345 -61.655572 26.516695 83.301707 68.404998 29.147573 3.576278 14.08217 -23.952763 -15.545909 -120.251689 -38.102782 -20.753917 21.914683 110.452924 -54.704834 -170.142038
